<svg width="160" height="161" viewBox="0 0 160 161" fill="none" xmlns="http://www.w3.org/2000/svg">
<rect width="160" height="161" rx="24" fill="#1A1D24"/>
<path fill-rule="evenodd" clip-rule="evenodd" d="M80 114.001C98.2254 114.001 113 99.2265 113 81.0011C113 62.7757 98.2254 48.0011 80 48.0011C61.7746 48.0011 47 62.7757 47 81.0011C47 99.2265 61.7746 114.001 80 114.001ZM106.247 87.3615C106.739 85.3219 107 83.192 107 81.0011C107 77.9853 106.506 75.085 105.593 72.3768L89.9029 79.6934C89.9669 80.1505 90 80.6175 90 81.0923C90 81.2107 89.9979 81.3286 89.9939 81.446L106.247 87.3615ZM104.194 92.9995L87.9929 87.1027C87.6295 87.5852 87.2234 88.0337 86.7803 88.4427L94.0607 104.056C98.3942 101.407 101.923 97.5707 104.194 92.9995ZM88.6244 106.594L81.3533 91.0015C80.9107 91.0614 80.459 91.0923 80 91.0923C79.8404 91.0923 79.6817 91.0885 79.524 91.0812L73.6398 107.248C75.6794 107.74 77.8092 108.001 80 108.001C83.0158 108.001 85.9162 107.507 88.6244 106.594ZM68.0018 105.195L73.8924 89.011C73.4132 88.6409 72.9685 88.2282 72.564 87.7787L56.9455 95.0617C59.5942 99.3953 63.4304 102.924 68.0018 105.195ZM54.4067 89.6253C53.4944 86.9171 53 84.0169 53 81.0011C53 78.8102 53.2609 76.6802 53.7535 74.6406L70.014 80.559C70.0047 80.7356 70 80.9134 70 81.0923C70 81.5077 70.0253 81.9172 70.0745 82.3193L54.4067 89.6253ZM55.8058 69.0025L72.1166 74.9392C72.4681 74.4894 72.8573 74.0705 73.2795 73.6872L65.9395 57.9466C61.6059 60.5952 58.0772 64.4313 55.8058 69.0025ZM71.3759 55.4077L78.7271 71.1725C79.144 71.1196 79.5688 71.0923 80 71.0923C80.1378 71.0923 80.2749 71.0951 80.4113 71.1006L86.3607 54.7546C84.321 54.2621 82.191 54.0011 80 54.0011C76.9843 54.0011 74.084 54.4955 71.3759 55.4077ZM91.9987 56.807L86.0562 73.1341C86.509 73.4792 86.9315 73.8621 87.319 74.2781L103.054 66.9405C100.406 62.607 96.5698 59.0784 91.9987 56.807ZM80 86.0011C82.7614 86.0011 85 83.7625 85 81.0011C85 78.2397 82.7614 76.0011 80 76.0011C77.2386 76.0011 75 78.2397 75 81.0011C75 83.7625 77.2386 86.0011 80 86.0011Z" fill="#FFD100"/>
<path fill-rule="evenodd" clip-rule="evenodd" d="M150 81C150 119.66 118.66 151 80 151C41.3401 151 10 119.66 10 81C10 42.3401 41.3401 11 80 11C118.66 11 150 42.3401 150 81ZM144 81C144 116.346 115.346 145 80 145C44.6538 145 16 116.346 16 81C16 45.6538 44.6538 17 80 17C115.346 17 144 45.6538 144 81ZM125 81C125 105.853 104.853 126 80 126C55.1472 126 35 105.853 35 81C35 56.1472 55.1472 36 80 36C104.853 36 125 56.1472 125 81ZM119 81C119 102.539 101.539 120 80 120C58.4609 120 41 102.539 41 81C41 59.4609 58.4609 42 80 42C101.539 42 119 59.4609 119 81Z" fill="#FFFFFF"/>
</svg>
