<svg width="1137" height="161" viewBox="0 0 1137 161" fill="none" xmlns="http://www.w3.org/2000/svg">
<path d="M201.254 155.001L201.974 136.161H181.934L176.054 155.001H153.134L183.974 68.6012H223.574L224.054 155.001H201.254ZM196.334 89.6012L186.854 120.081H202.574L203.894 89.6012H196.334ZM285.449 68.6012C294.569 68.6012 301.049 70.6012 304.889 74.6012C307.769 77.6412 309.209 81.4812 309.209 86.1212C309.209 87.7212 309.049 89.4012 308.729 91.1612L307.049 100.521C306.089 105.721 304.409 109.921 302.009 113.121C299.689 116.321 297.089 118.601 294.209 119.961L305.129 155.001H280.889L270.809 122.721H263.369L258.449 155.001H235.409L250.649 68.6012H285.449ZM277.889 87.3212H268.889L265.769 108.201H274.169C278.409 108.201 281.449 107.201 283.289 105.201C285.129 103.121 286.049 100.401 286.049 97.0412C286.049 90.5612 283.329 87.3212 277.889 87.3212ZM356.879 155.001L357.599 136.161H337.559L331.679 155.001H308.759L339.599 68.6012H379.199L379.679 155.001H356.879ZM351.959 89.6012L342.479 120.081H358.199L359.519 89.6012H351.959ZM421.154 156.681C409.794 156.681 401.954 154.041 397.634 148.761C394.674 145.081 393.194 140.041 393.194 133.641C393.194 130.681 393.514 127.441 394.154 123.921L398.354 99.9212C402.114 78.4812 415.234 67.7612 437.714 67.7612C446.994 67.7612 454.034 69.7612 458.834 73.7612C463.634 77.6812 466.034 83.0812 466.034 89.9612C466.034 92.7612 465.634 95.6012 464.834 98.4812C464.114 101.361 463.394 103.521 462.674 104.961L461.474 107.121H440.234C442.314 104.241 443.354 100.921 443.354 97.1612C443.354 89.9612 440.354 86.3612 434.354 86.3612C426.274 86.3612 421.434 91.0412 419.834 100.401L415.754 123.441C415.354 125.601 415.154 127.721 415.154 129.801C415.154 135.321 418.394 138.081 424.874 138.081C431.434 138.081 435.634 134.801 437.474 128.241H427.634L430.034 114.921H461.834L459.914 125.241L459.314 128.721C455.954 147.361 443.234 156.681 421.154 156.681ZM529.204 155.001H468.964L484.204 68.6012H544.444L541.084 87.3212H502.444L499.684 103.521H531.604L528.244 122.241H496.324L493.924 136.281H532.564L529.204 155.001Z" fill="white"/>
<path d="M628.742 68.6012C637.862 68.6012 644.342 70.6012 648.182 74.6012C651.062 77.6412 652.502 81.4812 652.502 86.1212C652.502 87.7212 652.342 89.4012 652.022 91.1612L650.942 96.9212C650.062 101.481 648.342 105.041 645.782 107.601C643.302 110.161 641.102 111.441 639.182 111.441L639.062 112.401C641.302 112.401 643.582 113.641 645.902 116.121C648.222 118.601 649.382 121.521 649.382 124.881C649.382 126.241 649.222 127.681 648.902 129.201L648.182 132.921C646.902 139.801 643.822 145.201 638.942 149.121C634.142 153.041 627.422 155.001 618.782 155.001H578.702L593.942 68.6012H628.742ZM617.942 119.721H606.542L603.662 136.281H615.062C615.222 136.281 615.382 136.281 615.542 136.281C619.222 136.281 622.142 135.441 624.302 133.761C626.462 132.001 627.542 129.881 627.542 127.401C627.542 122.281 624.342 119.721 617.942 119.721ZM621.182 87.3212H612.182L609.062 105.201H617.942C625.622 105.201 629.462 101.841 629.462 95.1212C629.462 92.8012 628.742 90.9212 627.302 89.4812C625.942 88.0412 623.902 87.3212 621.182 87.3212ZM707.609 68.6012C716.729 68.6012 723.209 70.6012 727.049 74.6012C729.929 77.6412 731.369 81.4812 731.369 86.1212C731.369 87.7212 731.209 89.4012 730.889 91.1612L729.209 100.521C728.249 105.721 726.569 109.921 724.169 113.121C721.849 116.321 719.249 118.601 716.369 119.961L727.289 155.001H703.049L692.969 122.721H685.529L680.609 155.001H657.569L672.809 68.6012H707.609ZM700.049 87.3212H691.049L687.929 108.201H696.329C700.569 108.201 703.609 107.201 705.449 105.201C707.289 103.121 708.209 100.401 708.209 97.0412C708.209 90.5612 705.489 87.3212 700.049 87.3212ZM795.253 148.761C788.933 154.041 779.973 156.681 768.373 156.681C756.773 156.681 748.733 154.001 744.253 148.641C741.053 144.961 739.453 139.881 739.453 133.401C739.453 130.521 739.773 127.361 740.413 123.921L750.133 68.6012H771.733L762.013 123.441C761.693 125.441 761.533 127.521 761.533 129.681C761.533 135.281 764.893 138.081 771.613 138.081C775.613 138.081 778.813 137.041 781.213 134.961C783.613 132.881 785.293 129.041 786.253 123.441L795.973 68.6012H817.573L807.853 123.921C805.853 135.121 801.653 143.401 795.253 148.761ZM900.542 68.6012L885.422 155.001H863.702L848.582 107.721L840.422 155.001H818.702L833.942 68.6012H856.262L871.142 112.761L878.942 68.6012H900.542ZM984.214 68.6012L969.094 155.001H947.374L932.254 107.721L924.094 155.001H902.374L917.614 68.6012H939.934L954.814 112.761L962.614 68.6012H984.214ZM1046.29 155.001H986.046L1001.29 68.6012H1061.53L1058.17 87.3212H1019.53L1016.77 103.521H1048.69L1045.33 122.241H1013.41L1011.01 136.281H1049.65L1046.29 155.001ZM1110.15 68.6012C1119.27 68.6012 1125.75 70.6012 1129.59 74.6012C1132.47 77.6412 1133.91 81.4812 1133.91 86.1212C1133.91 87.7212 1133.75 89.4012 1133.43 91.1612L1131.75 100.521C1130.79 105.721 1129.11 109.921 1126.71 113.121C1124.39 116.321 1121.79 118.601 1118.91 119.961L1129.83 155.001H1105.59L1095.51 122.721H1088.07L1083.15 155.001H1060.11L1075.35 68.6012H1110.15ZM1102.59 87.3212H1093.59L1090.47 108.201H1098.87C1103.11 108.201 1106.15 107.201 1107.99 105.201C1109.83 103.121 1110.75 100.401 1110.75 97.0412C1110.75 90.5612 1108.03 87.3212 1102.59 87.3212Z" fill="#FFD100"/>
<path fill-rule="evenodd" clip-rule="evenodd" d="M80 114.001C98.2254 114.001 113 99.2265 113 81.0011C113 62.7757 98.2254 48.0011 80 48.0011C61.7746 48.0011 47 62.7757 47 81.0011C47 99.2265 61.7746 114.001 80 114.001ZM106.247 87.3615C106.739 85.3219 107 83.192 107 81.0011C107 77.9853 106.506 75.085 105.593 72.3768L89.9029 79.6934C89.9669 80.1505 90 80.6175 90 81.0923C90 81.2107 89.9979 81.3286 89.9939 81.446L106.247 87.3615ZM104.194 92.9995L87.9929 87.1027C87.6295 87.5852 87.2234 88.0337 86.7803 88.4427L94.0607 104.056C98.3942 101.407 101.923 97.5707 104.194 92.9995ZM88.6244 106.594L81.3533 91.0015C80.9107 91.0614 80.459 91.0923 80 91.0923C79.8404 91.0923 79.6817 91.0885 79.524 91.0812L73.6398 107.248C75.6794 107.74 77.8092 108.001 80 108.001C83.0158 108.001 85.9162 107.507 88.6244 106.594ZM68.0018 105.195L73.8924 89.011C73.4132 88.6409 72.9685 88.2282 72.564 87.7787L56.9455 95.0617C59.5942 99.3953 63.4304 102.924 68.0018 105.195ZM54.4067 89.6253C53.4944 86.9171 53 84.0169 53 81.0011C53 78.8102 53.2609 76.6802 53.7535 74.6406L70.014 80.559C70.0047 80.7356 70 80.9134 70 81.0923C70 81.5077 70.0253 81.9172 70.0745 82.3193L54.4067 89.6253ZM55.8058 69.0025L72.1166 74.9392C72.4681 74.4894 72.8573 74.0705 73.2795 73.6872L65.9395 57.9466C61.6059 60.5952 58.0772 64.4313 55.8058 69.0025ZM71.3759 55.4077L78.7271 71.1725C79.144 71.1196 79.5688 71.0923 80 71.0923C80.1378 71.0923 80.2749 71.0951 80.4113 71.1006L86.3607 54.7546C84.321 54.2621 82.191 54.0011 80 54.0011C76.9843 54.0011 74.084 54.4955 71.3759 55.4077ZM91.9987 56.807L86.0562 73.1341C86.509 73.4792 86.9315 73.8621 87.319 74.2781L103.054 66.9405C100.406 62.607 96.5698 59.0784 91.9987 56.807ZM80 86.0011C82.7614 86.0011 85 83.7625 85 81.0011C85 78.2397 82.7614 76.0011 80 76.0011C77.2386 76.0011 75 78.2397 75 81.0011C75 83.7625 77.2386 86.0011 80 86.0011Z" fill="white"/>
<path fill-rule="evenodd" clip-rule="evenodd" d="M160 80.9099C160 125.093 124.183 160.91 80 160.91C35.8172 160.91 0 125.093 0 80.9099C0 36.7271 35.8172 0.909912 80 0.909912H194.756L176.46 55.9099H156.016C158.601 63.7754 160 72.1793 160 80.9099ZM149.671 55.9099C152.473 63.7191 154 72.1362 154 80.9099C154 121.779 120.869 154.91 80 154.91C39.1309 154.91 6 121.779 6 80.9099C6 40.2076 38.861 7.18047 79.5 6.91157V6.90991H186.437L172.133 49.9099H112.532C104.339 41.3394 92.7929 36.0011 80 36.0011C55.1472 36.0011 35 56.1483 35 81.0011C35 105.854 55.1472 126.001 80 126.001C104.853 126.001 125 105.854 125 81.0011C125 71.711 122.185 63.0784 117.361 55.9099H149.671ZM80 120.001C101.539 120.001 119 102.54 119 81.0011C119 59.462 101.539 42.0011 80 42.0011C58.4609 42.0011 41 59.462 41 81.0011C41 102.54 58.4609 120.001 80 120.001Z" fill="white"/>
</svg>
